<mxfile host="app.diagrams.net" modified="2024-01-22T17:15:36.390Z" agent="Mozilla/5.0 (Macintosh; Intel Mac OS X 10_15_7) AppleWebKit/605.1.15 (KHTML, like Gecko) Version/17.2 Safari/605.1.15" etag="lTTY0zxAQUys2zybeOZx" version="22.1.21" type="github">
  <diagram name="Page-1" id="OAkvakmoVMqIpzo2L1Cv">
    <mxGraphModel dx="1732" dy="1144" grid="0" gridSize="10" guides="1" tooltips="1" connect="1" arrows="1" fold="1" page="0" pageScale="1" pageWidth="827" pageHeight="1169" math="0" shadow="0">
      <root>
        <mxCell id="0" />
        <mxCell id="1" parent="0" />
        <mxCell id="TtApkbNEtEup5KKo7Kl3-6" value="" style="whiteSpace=wrap;html=1;fontSize=16;" parent="1" vertex="1">
          <mxGeometry x="-120" y="-136" width="1511" height="287.5" as="geometry" />
        </mxCell>
        <mxCell id="TtApkbNEtEup5KKo7Kl3-82" value="" style="rounded=0;whiteSpace=wrap;html=1;dashed=1;" parent="1" vertex="1">
          <mxGeometry x="1086" y="-48" width="287" height="177" as="geometry" />
        </mxCell>
        <mxCell id="TtApkbNEtEup5KKo7Kl3-69" value="" style="rounded=0;whiteSpace=wrap;html=1;dashed=1;" parent="1" vertex="1">
          <mxGeometry x="581" y="-48" width="499" height="177" as="geometry" />
        </mxCell>
        <mxCell id="TtApkbNEtEup5KKo7Kl3-53" value="" style="rounded=0;whiteSpace=wrap;html=1;dashed=1;" parent="1" vertex="1">
          <mxGeometry x="162" y="-119" width="411" height="248" as="geometry" />
        </mxCell>
        <mxCell id="TtApkbNEtEup5KKo7Kl3-27" value="" style="rounded=0;whiteSpace=wrap;html=1;dashed=1;" parent="1" vertex="1">
          <mxGeometry x="-116" y="-119" width="267" height="248" as="geometry" />
        </mxCell>
        <mxCell id="TtApkbNEtEup5KKo7Kl3-1" value="Source&amp;nbsp;&lt;br style=&quot;font-size: 12px;&quot;&gt;&lt;i style=&quot;font-size: 12px;&quot;&gt;Simulator&lt;/i&gt;" style="text;strokeColor=#6c8ebf;fillColor=#dae8fc;html=1;align=center;verticalAlign=middle;whiteSpace=wrap;rounded=1;fontSize=12;gradientColor=none;" parent="1" vertex="1">
          <mxGeometry x="-348" y="-136" width="98" height="51" as="geometry" />
        </mxCell>
        <mxCell id="TtApkbNEtEup5KKo7Kl3-78" style="edgeStyle=orthogonalEdgeStyle;rounded=0;orthogonalLoop=1;jettySize=auto;html=1;entryX=0;entryY=0.5;entryDx=0;entryDy=0;" parent="1" source="TtApkbNEtEup5KKo7Kl3-5" target="TtApkbNEtEup5KKo7Kl3-6" edge="1">
          <mxGeometry relative="1" as="geometry" />
        </mxCell>
        <mxCell id="TtApkbNEtEup5KKo7Kl3-5" value="Data Format Converter" style="text;html=1;align=center;verticalAlign=middle;resizable=0;points=[];autosize=1;strokeColor=#82b366;fillColor=#d5e8d4;fontSize=12;rotation=-90;rounded=1;" parent="1" vertex="1">
          <mxGeometry x="-250" y="-5" width="141" height="26" as="geometry" />
        </mxCell>
        <mxCell id="TtApkbNEtEup5KKo7Kl3-11" value="Source&amp;nbsp;&lt;br style=&quot;border-color: var(--border-color); font-size: 12px;&quot;&gt;&lt;i style=&quot;font-size: 12px;&quot;&gt;UAV&lt;/i&gt;" style="text;strokeColor=#6c8ebf;fillColor=#dae8fc;html=1;align=center;verticalAlign=middle;whiteSpace=wrap;rounded=1;fontSize=12;gradientColor=none;" parent="1" vertex="1">
          <mxGeometry x="-348" y="-20" width="98" height="51" as="geometry" />
        </mxCell>
        <mxCell id="TtApkbNEtEup5KKo7Kl3-12" value="Source&amp;nbsp;&lt;br style=&quot;border-color: var(--border-color); font-size: 12px;&quot;&gt;â€¦" style="text;strokeColor=#6c8ebf;fillColor=#dae8fc;html=1;align=center;verticalAlign=middle;whiteSpace=wrap;rounded=1;fontSize=12;gradientColor=none;" parent="1" vertex="1">
          <mxGeometry x="-348" y="100.5" width="98" height="51" as="geometry" />
        </mxCell>
        <mxCell id="TtApkbNEtEup5KKo7Kl3-13" style="edgeStyle=orthogonalEdgeStyle;rounded=0;orthogonalLoop=1;jettySize=auto;html=1;entryX=0.004;entryY=0.519;entryDx=0;entryDy=0;entryPerimeter=0;" parent="1" source="TtApkbNEtEup5KKo7Kl3-12" target="TtApkbNEtEup5KKo7Kl3-5" edge="1">
          <mxGeometry relative="1" as="geometry" />
        </mxCell>
        <mxCell id="TtApkbNEtEup5KKo7Kl3-14" style="edgeStyle=orthogonalEdgeStyle;rounded=0;orthogonalLoop=1;jettySize=auto;html=1;entryX=0.519;entryY=0.048;entryDx=0;entryDy=0;entryPerimeter=0;" parent="1" source="TtApkbNEtEup5KKo7Kl3-11" target="TtApkbNEtEup5KKo7Kl3-5" edge="1">
          <mxGeometry relative="1" as="geometry" />
        </mxCell>
        <mxCell id="TtApkbNEtEup5KKo7Kl3-17" value="Abstraction of &lt;br&gt;Real-World" style="text;html=1;align=center;verticalAlign=middle;resizable=0;points=[];autosize=1;strokeColor=#666666;fillColor=#f5f5f5;fontColor=#333333;rounded=1;" parent="1" vertex="1">
          <mxGeometry x="-109" y="-6" width="91" height="40" as="geometry" />
        </mxCell>
        <mxCell id="TtApkbNEtEup5KKo7Kl3-19" value="&lt;div&gt;Interpretation&lt;br&gt;&lt;/div&gt;&lt;div&gt;to attributes&lt;/div&gt;&lt;div&gt;and&lt;/div&gt;&lt;div&gt;parameters&lt;/div&gt;" style="text;html=1;align=center;verticalAlign=middle;resizable=0;points=[];autosize=1;strokeColor=#666666;fillColor=#f5f5f5;fontColor=#333333;rounded=1;" parent="1" vertex="1">
          <mxGeometry x="-109" y="40" width="89" height="68" as="geometry" />
        </mxCell>
        <mxCell id="TtApkbNEtEup5KKo7Kl3-22" value="Perception DB" style="shape=datastore;whiteSpace=wrap;html=1;fontSize=10;fillColor=#ffe6cc;strokeColor=#d79b00;" parent="1" vertex="1">
          <mxGeometry x="85" y="-6" width="54" height="51" as="geometry" />
        </mxCell>
        <mxCell id="TtApkbNEtEup5KKo7Kl3-23" value="Scenario DB" style="shape=datastore;whiteSpace=wrap;html=1;fontSize=10;fillColor=#ffe6cc;strokeColor=#d79b00;" parent="1" vertex="1">
          <mxGeometry x="29" y="-6" width="50" height="51" as="geometry" />
        </mxCell>
        <mxCell id="TtApkbNEtEup5KKo7Kl3-24" value="Vehicle&amp;nbsp;&lt;br style=&quot;font-size: 10px;&quot;&gt;DB" style="shape=datastore;whiteSpace=wrap;html=1;fontSize=10;fillColor=#ffe6cc;strokeColor=#d79b00;" parent="1" vertex="1">
          <mxGeometry x="28" y="53" width="52" height="49.5" as="geometry" />
        </mxCell>
        <mxCell id="TtApkbNEtEup5KKo7Kl3-25" value="Env&lt;br&gt;DB" style="shape=datastore;whiteSpace=wrap;html=1;fontSize=10;fillColor=#ffe6cc;strokeColor=#d79b00;" parent="1" vertex="1">
          <mxGeometry x="88" y="53" width="48" height="49" as="geometry" />
        </mxCell>
        <mxCell id="TtApkbNEtEup5KKo7Kl3-28" value="STEP 1: Scenario Initialization" style="rounded=1;whiteSpace=wrap;html=1;fillColor=#e1d5e7;strokeColor=#9673a6;" parent="1" vertex="1">
          <mxGeometry x="-107" y="-102" width="237" height="23" as="geometry" />
        </mxCell>
        <mxCell id="TtApkbNEtEup5KKo7Kl3-29" value="" style="endArrow=classic;html=1;rounded=0;" parent="1" edge="1">
          <mxGeometry width="50" height="50" relative="1" as="geometry">
            <mxPoint x="-14" y="40.01999999999998" as="sourcePoint" />
            <mxPoint x="21" y="40.01999999999998" as="targetPoint" />
          </mxGeometry>
        </mxCell>
        <mxCell id="TtApkbNEtEup5KKo7Kl3-30" value="STEP 2: Test Case Parametrization" style="rounded=1;whiteSpace=wrap;html=1;fillColor=#e1d5e7;strokeColor=#9673a6;" parent="1" vertex="1">
          <mxGeometry x="183" y="-102" width="375" height="23" as="geometry" />
        </mxCell>
        <mxCell id="TtApkbNEtEup5KKo7Kl3-31" value="" style="endArrow=classic;html=1;rounded=0;" parent="1" edge="1">
          <mxGeometry width="50" height="50" relative="1" as="geometry">
            <mxPoint x="144" y="41.01999999999998" as="sourcePoint" />
            <mxPoint x="179" y="41.01999999999998" as="targetPoint" />
          </mxGeometry>
        </mxCell>
        <mxCell id="TtApkbNEtEup5KKo7Kl3-40" style="edgeStyle=orthogonalEdgeStyle;rounded=0;orthogonalLoop=1;jettySize=auto;html=1;exitX=1;exitY=0.5;exitDx=0;exitDy=0;" parent="1" source="TtApkbNEtEup5KKo7Kl3-32" target="TtApkbNEtEup5KKo7Kl3-39" edge="1">
          <mxGeometry relative="1" as="geometry" />
        </mxCell>
        <mxCell id="TtApkbNEtEup5KKo7Kl3-32" value="Defining of operational readiness" style="rounded=1;whiteSpace=wrap;html=1;fillColor=#f5f5f5;fontColor=#333333;strokeColor=#666666;" parent="1" vertex="1">
          <mxGeometry x="326" y="21.5" width="103" height="45" as="geometry" />
        </mxCell>
        <mxCell id="TtApkbNEtEup5KKo7Kl3-38" style="edgeStyle=orthogonalEdgeStyle;rounded=0;orthogonalLoop=1;jettySize=auto;html=1;exitX=1;exitY=0.5;exitDx=0;exitDy=0;entryX=0;entryY=0.5;entryDx=0;entryDy=0;" parent="1" source="TtApkbNEtEup5KKo7Kl3-33" target="TtApkbNEtEup5KKo7Kl3-32" edge="1">
          <mxGeometry relative="1" as="geometry" />
        </mxCell>
        <mxCell id="TtApkbNEtEup5KKo7Kl3-33" value="Traceability between requirements and test case" style="rounded=1;whiteSpace=wrap;html=1;fillColor=#f5f5f5;fontColor=#333333;strokeColor=#666666;" parent="1" vertex="1">
          <mxGeometry x="183" y="14" width="120" height="60" as="geometry" />
        </mxCell>
        <mxCell id="TtApkbNEtEup5KKo7Kl3-34" value="STEP 3: Start of Simulation" style="rounded=1;whiteSpace=wrap;html=1;fillColor=#e1d5e7;strokeColor=#9673a6;" parent="1" vertex="1">
          <mxGeometry x="587" y="-37" width="468" height="23" as="geometry" />
        </mxCell>
        <mxCell id="TtApkbNEtEup5KKo7Kl3-55" style="edgeStyle=orthogonalEdgeStyle;rounded=0;orthogonalLoop=1;jettySize=auto;html=1;exitX=1;exitY=0.5;exitDx=0;exitDy=0;entryX=0;entryY=0.5;entryDx=0;entryDy=0;" parent="1" source="TtApkbNEtEup5KKo7Kl3-39" target="TtApkbNEtEup5KKo7Kl3-54" edge="1">
          <mxGeometry relative="1" as="geometry" />
        </mxCell>
        <mxCell id="TtApkbNEtEup5KKo7Kl3-39" value="Scenario variation" style="rounded=1;whiteSpace=wrap;html=1;fillColor=#f5f5f5;fontColor=#333333;strokeColor=#666666;" parent="1" vertex="1">
          <mxGeometry x="457" y="21.5" width="103" height="45" as="geometry" />
        </mxCell>
        <mxCell id="TtApkbNEtEup5KKo7Kl3-41" value="" style="shape=image;html=1;verticalAlign=top;verticalLabelPosition=bottom;labelBackgroundColor=#ffffff;imageAspect=0;aspect=fixed;image=https://cdn4.iconfinder.com/data/icons/transportation-190/1000/carrier_office_people_person_people_carrier_people_business_success-128.png" parent="1" vertex="1">
          <mxGeometry x="327" y="247" width="128" height="128" as="geometry" />
        </mxCell>
        <mxCell id="TtApkbNEtEup5KKo7Kl3-48" style="edgeStyle=orthogonalEdgeStyle;rounded=0;orthogonalLoop=1;jettySize=auto;html=1;entryX=0.5;entryY=1;entryDx=0;entryDy=0;" parent="1" source="TtApkbNEtEup5KKo7Kl3-42" target="TtApkbNEtEup5KKo7Kl3-44" edge="1">
          <mxGeometry relative="1" as="geometry" />
        </mxCell>
        <mxCell id="TtApkbNEtEup5KKo7Kl3-42" value="Use case" style="text;html=1;align=center;verticalAlign=middle;resizable=0;points=[];autosize=1;strokeColor=default;fillColor=default;rounded=1;" parent="1" vertex="1">
          <mxGeometry x="213" y="298" width="68" height="26" as="geometry" />
        </mxCell>
        <mxCell id="TtApkbNEtEup5KKo7Kl3-45" style="edgeStyle=orthogonalEdgeStyle;rounded=0;orthogonalLoop=1;jettySize=auto;html=1;" parent="1" source="TtApkbNEtEup5KKo7Kl3-43" target="TtApkbNEtEup5KKo7Kl3-44" edge="1">
          <mxGeometry relative="1" as="geometry" />
        </mxCell>
        <mxCell id="TtApkbNEtEup5KKo7Kl3-43" value="Quality and requirements analysis" style="rounded=1;whiteSpace=wrap;html=1;" parent="1" vertex="1">
          <mxGeometry x="22" y="196" width="120" height="60" as="geometry" />
        </mxCell>
        <mxCell id="TtApkbNEtEup5KKo7Kl3-49" style="edgeStyle=orthogonalEdgeStyle;rounded=1;orthogonalLoop=1;jettySize=auto;html=1;entryX=0.5;entryY=1;entryDx=0;entryDy=0;jumpStyle=arc;curved=0;" parent="1" source="TtApkbNEtEup5KKo7Kl3-44" target="TtApkbNEtEup5KKo7Kl3-39" edge="1">
          <mxGeometry relative="1" as="geometry" />
        </mxCell>
        <mxCell id="TtApkbNEtEup5KKo7Kl3-44" value="Relevant scenarios based on attributes" style="rounded=1;whiteSpace=wrap;html=1;" parent="1" vertex="1">
          <mxGeometry x="183" y="196" width="120" height="60" as="geometry" />
        </mxCell>
        <mxCell id="TtApkbNEtEup5KKo7Kl3-60" style="edgeStyle=orthogonalEdgeStyle;rounded=0;orthogonalLoop=1;jettySize=auto;html=1;exitX=0.5;exitY=1;exitDx=0;exitDy=0;entryX=0.5;entryY=0;entryDx=0;entryDy=0;" parent="1" source="TtApkbNEtEup5KKo7Kl3-54" target="TtApkbNEtEup5KKo7Kl3-57" edge="1">
          <mxGeometry relative="1" as="geometry" />
        </mxCell>
        <mxCell id="TtApkbNEtEup5KKo7Kl3-54" value="Logical scenario" style="rounded=1;whiteSpace=wrap;html=1;fillColor=#f5f5f5;fontColor=#333333;strokeColor=#666666;" parent="1" vertex="1">
          <mxGeometry x="590" y="22" width="103" height="45" as="geometry" />
        </mxCell>
        <mxCell id="TtApkbNEtEup5KKo7Kl3-61" style="edgeStyle=orthogonalEdgeStyle;rounded=1;orthogonalLoop=1;jettySize=auto;html=1;entryX=0.5;entryY=1;entryDx=0;entryDy=0;jumpStyle=arc;strokeColor=default;curved=0;exitX=1;exitY=0.25;exitDx=0;exitDy=0;" parent="1" source="TtApkbNEtEup5KKo7Kl3-62" target="TtApkbNEtEup5KKo7Kl3-59" edge="1">
          <mxGeometry relative="1" as="geometry">
            <Array as="points">
              <mxPoint x="764" y="303" />
            </Array>
          </mxGeometry>
        </mxCell>
        <mxCell id="TtApkbNEtEup5KKo7Kl3-63" style="edgeStyle=orthogonalEdgeStyle;rounded=0;orthogonalLoop=1;jettySize=auto;html=1;" parent="1" source="TtApkbNEtEup5KKo7Kl3-57" target="TtApkbNEtEup5KKo7Kl3-62" edge="1">
          <mxGeometry relative="1" as="geometry" />
        </mxCell>
        <mxCell id="TtApkbNEtEup5KKo7Kl3-57" value="Logical scenario&lt;br&gt;Compilation" style="rounded=1;whiteSpace=wrap;html=1;fillColor=#f5f5f5;fontColor=#333333;strokeColor=#666666;" parent="1" vertex="1">
          <mxGeometry x="590" y="81" width="103" height="45" as="geometry" />
        </mxCell>
        <mxCell id="TtApkbNEtEup5KKo7Kl3-59" value="Pass/fail criteria and KPI metrics" style="rounded=1;whiteSpace=wrap;html=1;fillColor=#f5f5f5;fontColor=#333333;strokeColor=#666666;" parent="1" vertex="1">
          <mxGeometry x="712" y="24" width="103" height="45" as="geometry" />
        </mxCell>
        <mxCell id="TtApkbNEtEup5KKo7Kl3-67" style="edgeStyle=orthogonalEdgeStyle;rounded=1;orthogonalLoop=1;jettySize=auto;html=1;entryX=0.5;entryY=1;entryDx=0;entryDy=0;curved=0;startArrow=classic;startFill=1;" parent="1" source="TtApkbNEtEup5KKo7Kl3-62" target="TtApkbNEtEup5KKo7Kl3-65" edge="1">
          <mxGeometry relative="1" as="geometry" />
        </mxCell>
        <mxCell id="TtApkbNEtEup5KKo7Kl3-68" style="edgeStyle=orthogonalEdgeStyle;rounded=1;orthogonalLoop=1;jettySize=auto;html=1;exitX=1;exitY=0.75;exitDx=0;exitDy=0;curved=0;startArrow=classic;startFill=1;" parent="1" source="TtApkbNEtEup5KKo7Kl3-62" target="TtApkbNEtEup5KKo7Kl3-66" edge="1">
          <mxGeometry relative="1" as="geometry" />
        </mxCell>
        <mxCell id="TtApkbNEtEup5KKo7Kl3-62" value="SiL&lt;br&gt;(Simulator)" style="rounded=1;whiteSpace=wrap;html=1;" parent="1" vertex="1">
          <mxGeometry x="590" y="292" width="103" height="45" as="geometry" />
        </mxCell>
        <mxCell id="TtApkbNEtEup5KKo7Kl3-64" value="Data format converter" style="rounded=1;whiteSpace=wrap;html=1;fillColor=#d5e8d4;strokeColor=#82b366;" parent="1" vertex="1">
          <mxGeometry x="619" y="196" width="179" height="29" as="geometry" />
        </mxCell>
        <mxCell id="TtApkbNEtEup5KKo7Kl3-65" value="Runtime&amp;nbsp;&lt;br&gt;Interaction" style="rounded=1;whiteSpace=wrap;html=1;fillColor=#f5f5f5;fontColor=#333333;strokeColor=#666666;" parent="1" vertex="1">
          <mxGeometry x="834" y="24" width="103" height="45" as="geometry" />
        </mxCell>
        <mxCell id="TtApkbNEtEup5KKo7Kl3-66" value="Runtime&amp;nbsp;&lt;br&gt;test evaluation" style="rounded=1;whiteSpace=wrap;html=1;fillColor=#f5f5f5;fontColor=#333333;strokeColor=#666666;" parent="1" vertex="1">
          <mxGeometry x="956" y="22" width="103" height="45" as="geometry" />
        </mxCell>
        <mxCell id="TtApkbNEtEup5KKo7Kl3-71" value="STEP 3: Evaluation" style="rounded=1;whiteSpace=wrap;html=1;fillColor=#e1d5e7;strokeColor=#9673a6;" parent="1" vertex="1">
          <mxGeometry x="1092" y="-37" width="247" height="23" as="geometry" />
        </mxCell>
        <mxCell id="TtApkbNEtEup5KKo7Kl3-76" style="edgeStyle=orthogonalEdgeStyle;rounded=0;orthogonalLoop=1;jettySize=auto;html=1;exitX=1;exitY=0.5;exitDx=0;exitDy=0;entryX=0;entryY=0.5;entryDx=0;entryDy=0;" parent="1" source="TtApkbNEtEup5KKo7Kl3-73" target="TtApkbNEtEup5KKo7Kl3-74" edge="1">
          <mxGeometry relative="1" as="geometry" />
        </mxCell>
        <mxCell id="TtApkbNEtEup5KKo7Kl3-73" value="Post-run test&amp;nbsp;&lt;br style=&quot;border-color: var(--border-color);&quot;&gt;evaluation" style="rounded=1;whiteSpace=wrap;html=1;fillColor=#f5f5f5;strokeColor=#666666;" parent="1" vertex="1">
          <mxGeometry x="1092" y="24" width="103" height="45" as="geometry" />
        </mxCell>
        <mxCell id="TtApkbNEtEup5KKo7Kl3-74" value="Storage" style="rounded=1;whiteSpace=wrap;html=1;fillColor=#f5f5f5;strokeColor=#666666;" parent="1" vertex="1">
          <mxGeometry x="1228" y="24" width="103" height="45" as="geometry" />
        </mxCell>
        <mxCell id="TtApkbNEtEup5KKo7Kl3-75" value="" style="endArrow=classic;html=1;rounded=0;" parent="1" edge="1">
          <mxGeometry width="50" height="50" relative="1" as="geometry">
            <mxPoint x="1059" y="45" as="sourcePoint" />
            <mxPoint x="1094" y="45" as="targetPoint" />
          </mxGeometry>
        </mxCell>
        <mxCell id="TtApkbNEtEup5KKo7Kl3-77" style="edgeStyle=orthogonalEdgeStyle;rounded=0;orthogonalLoop=1;jettySize=auto;html=1;exitX=1;exitY=0.5;exitDx=0;exitDy=0;" parent="1" source="TtApkbNEtEup5KKo7Kl3-1" edge="1">
          <mxGeometry relative="1" as="geometry">
            <mxPoint x="-178" y="-62" as="targetPoint" />
          </mxGeometry>
        </mxCell>
        <mxCell id="TtApkbNEtEup5KKo7Kl3-79" value="Scheduling&amp;nbsp;" style="rounded=1;whiteSpace=wrap;html=1;fillColor=#fff2cc;strokeColor=#d6b656;" parent="1" vertex="1">
          <mxGeometry x="590" y="-6" width="225" height="21" as="geometry" />
        </mxCell>
        <mxCell id="TtApkbNEtEup5KKo7Kl3-81" value="Distribution&amp;nbsp;" style="rounded=1;whiteSpace=wrap;html=1;fillColor=#fff2cc;strokeColor=#d6b656;" parent="1" vertex="1">
          <mxGeometry x="834" y="-6" width="225" height="21" as="geometry" />
        </mxCell>
        <mxCell id="TtApkbNEtEup5KKo7Kl3-83" value="&lt;b&gt;&lt;font style=&quot;font-size: 14px;&quot;&gt;Scenario Engine CYCLEone&lt;/font&gt;&lt;/b&gt;" style="text;html=1;align=center;verticalAlign=middle;resizable=0;points=[];autosize=1;fillColor=default;" parent="1" vertex="1">
          <mxGeometry x="-109" y="135" width="204" height="28" as="geometry" />
        </mxCell>
        <mxCell id="WR9TDHSgrE66jRiIsSle-1" value="Initialize the system" style="rounded=1;whiteSpace=wrap;html=1;fillColor=#fff2cc;strokeColor=#d6b656;" vertex="1" parent="1">
          <mxGeometry x="-107" y="-70" width="121" height="30" as="geometry" />
        </mxCell>
        <mxCell id="WR9TDHSgrE66jRiIsSle-2" value="Initialize the &amp;nbsp;test environment" style="rounded=1;whiteSpace=wrap;html=1;fillColor=#fff2cc;strokeColor=#d6b656;" vertex="1" parent="1">
          <mxGeometry x="18" y="-70" width="121" height="29" as="geometry" />
        </mxCell>
        <mxCell id="WR9TDHSgrE66jRiIsSle-3" value="Define static scenario constrains" style="rounded=1;whiteSpace=wrap;html=1;fillColor=#fff2cc;strokeColor=#d6b656;" vertex="1" parent="1">
          <mxGeometry x="-107" y="-36" width="248" height="19" as="geometry" />
        </mxCell>
        <mxCell id="WR9TDHSgrE66jRiIsSle-5" value="Define internal actions" style="rounded=1;whiteSpace=wrap;html=1;fillColor=#fff2cc;strokeColor=#d6b656;" vertex="1" parent="1">
          <mxGeometry x="180" y="-71" width="121" height="30" as="geometry" />
        </mxCell>
        <mxCell id="WR9TDHSgrE66jRiIsSle-6" value="Define vehicle-level actions" style="rounded=1;whiteSpace=wrap;html=1;fillColor=#fff2cc;strokeColor=#d6b656;" vertex="1" parent="1">
          <mxGeometry x="307" y="-72" width="121" height="30" as="geometry" />
        </mxCell>
        <mxCell id="WR9TDHSgrE66jRiIsSle-7" value="Define vehicle-level actions" style="rounded=1;whiteSpace=wrap;html=1;fillColor=#fff2cc;strokeColor=#d6b656;" vertex="1" parent="1">
          <mxGeometry x="434" y="-71" width="121" height="30" as="geometry" />
        </mxCell>
        <mxCell id="WR9TDHSgrE66jRiIsSle-8" style="edgeStyle=orthogonalEdgeStyle;rounded=0;orthogonalLoop=1;jettySize=auto;html=1;exitX=0.5;exitY=0;exitDx=0;exitDy=0;" edge="1" parent="1" source="TtApkbNEtEup5KKo7Kl3-44" target="TtApkbNEtEup5KKo7Kl3-33">
          <mxGeometry relative="1" as="geometry">
            <mxPoint x="246" y="91" as="targetPoint" />
          </mxGeometry>
        </mxCell>
        <mxCell id="WR9TDHSgrE66jRiIsSle-9" value="Define internal parameters" style="rounded=1;whiteSpace=wrap;html=1;fillColor=#fff2cc;strokeColor=#d6b656;" vertex="1" parent="1">
          <mxGeometry x="180" y="-37" width="195" height="20" as="geometry" />
        </mxCell>
        <mxCell id="WR9TDHSgrE66jRiIsSle-10" value="Define scenario parameters" style="rounded=1;whiteSpace=wrap;html=1;fillColor=#fff2cc;strokeColor=#d6b656;" vertex="1" parent="1">
          <mxGeometry x="380" y="-37" width="176" height="20" as="geometry" />
        </mxCell>
        <mxCell id="WR9TDHSgrE66jRiIsSle-12" value="Scenario Description" style="rounded=1;whiteSpace=wrap;html=1;fillColor=#d5e8d4;strokeColor=#82b366;" vertex="1" parent="1">
          <mxGeometry x="330" y="180" width="179" height="29" as="geometry" />
        </mxCell>
      </root>
    </mxGraphModel>
  </diagram>
</mxfile>
